<?xml version="1.0" standalone="no"?>
<!DOCTYPE svg PUBLIC "-//W3C//DTD SVG 20010904//EN"
 "http://www.w3.org/TR/2001/REC-SVG-20010904/DTD/svg10.dtd">
<svg version="1.0" xmlns="http://www.w3.org/2000/svg"
 width="256.000000pt" height="256.000000pt" viewBox="0 0 256.000000 256.000000"
 preserveAspectRatio="xMidYMid meet">

<g transform="translate(0.000000,256.000000) scale(0.100000,-0.100000)"
fill="#000000" stroke="none">
<path d="M0 2281 l0 -280 633 -3 c347 -2 923 -2 1280 0 l647 3 0 280 0 279
-1280 0 -1280 0 0 -279z"/>
<path d="M1025 1973 c-354 -42 -650 -159 -832 -327 -251 -233 -253 -504 -6
-737 160 -151 411 -264 698 -314 55 -9 111 -21 125 -25 14 -5 -208 -9 -492 -9
l-518 -1 0 -280 0 -280 1280 0 1280 0 0 280 0 280 -522 0 c-287 0 -519 2 -516
5 2 3 60 14 128 26 317 54 562 164 731 329 186 182 223 378 107 580 -38 67
-141 172 -223 227 -178 120 -458 213 -727 242 -89 10 -443 13 -513 4z m465
-180 c3 -2 -5 -23 -17 -45 -13 -22 -20 -44 -17 -49 13 -22 45 -6 74 36 18 27
39 45 50 45 32 0 120 -21 125 -30 3 -5 -6 -28 -21 -52 -15 -23 -23 -44 -18
-45 64 -24 138 -60 141 -70 4 -10 -27 -30 -169 -111 -24 -14 -32 -13 -110 13
-106 36 -282 45 -395 22 -129 -28 -235 -92 -273 -168 -25 -49 -25 -82 1 -136
80 -165 459 -238 695 -133 26 11 54 20 63 19 22 0 204 -101 208 -115 5 -15
-119 -67 -222 -93 -109 -28 -284 -45 -378 -37 l-77 6 -33 -46 -32 -46 -64 6
c-36 3 -69 10 -74 15 -6 6 -2 22 12 44 25 41 26 53 6 61 -24 9 -41 -3 -69 -45
-15 -21 -32 -39 -40 -39 -32 0 -116 34 -116 47 0 7 12 31 26 53 15 22 25 42
23 43 -2 2 -34 22 -71 46 -325 208 -229 519 202 659 78 26 225 52 289 52 56 0
59 2 100 64 l34 48 71 -7 c39 -4 73 -9 76 -12z m-90 -435 c24 -13 53 -35 64
-51 20 -27 20 -28 2 -62 -45 -82 -230 -107 -332 -44 -62 38 -70 81 -25 127 38
37 79 50 171 51 60 1 85 -4 120 -21z"/>
</g>
</svg>
